<?xml version="1.0" encoding="UTF-8" standalone="no"?><svg xmlns="http://www.w3.org/2000/svg" xmlns:xlink="http://www.w3.org/1999/xlink" fill="#d9d9d9" height="86.9" preserveAspectRatio="xMidYMid meet" version="1" viewBox="55.9 56.6 88.3 86.9" width="88.3" zoomAndPan="magnify"><g><g id="change1_1"><circle cx="142.24" cy="141.53" r="1.9"/><circle cx="142.24" cy="132.3" r="1.9"/><circle cx="132.85" cy="132.3" r="1.9"/><circle cx="142.24" cy="123.07" r="1.9"/><circle cx="132.85" cy="123.07" r="1.9"/><circle cx="123.47" cy="123.07" r="1.9"/><circle cx="142.24" cy="113.84" r="1.9"/><circle cx="132.85" cy="113.84" r="1.9"/><circle cx="123.47" cy="113.84" r="1.9"/><circle cx="114.08" cy="113.84" r="1.9"/><circle cx="142.24" cy="104.61" r="1.9"/><circle cx="132.85" cy="104.61" r="1.9"/><circle cx="123.47" cy="104.61" r="1.9"/><circle cx="114.08" cy="104.61" r="1.9"/><circle cx="104.69" cy="104.61" r="1.9"/><circle cx="142.24" cy="95.39" r="1.9"/><circle cx="132.85" cy="95.39" r="1.9"/><circle cx="123.47" cy="95.39" r="1.9"/><circle cx="114.08" cy="95.39" r="1.9"/><circle cx="104.69" cy="95.39" r="1.9"/><circle cx="95.31" cy="95.39" r="1.9"/><circle cx="142.24" cy="86.16" r="1.9"/><circle cx="132.85" cy="86.16" r="1.9"/><circle cx="123.47" cy="86.16" r="1.9"/><circle cx="114.08" cy="86.16" r="1.9"/><circle cx="104.69" cy="86.16" r="1.9"/><circle cx="95.31" cy="86.16" r="1.9"/><circle cx="85.92" cy="86.16" r="1.9"/><circle cx="142.24" cy="76.93" r="1.9"/><circle cx="132.85" cy="76.93" r="1.9"/><circle cx="123.47" cy="76.93" r="1.9"/><circle cx="114.08" cy="76.93" r="1.9"/><circle cx="104.69" cy="76.93" r="1.9"/><circle cx="95.31" cy="76.93" r="1.9"/><circle cx="85.92" cy="76.93" r="1.9"/><circle cx="76.53" cy="76.93" r="1.9"/><circle cx="142.24" cy="67.7" r="1.9"/><circle cx="132.85" cy="67.7" r="1.9"/><circle cx="123.47" cy="67.7" r="1.9"/><circle cx="114.08" cy="67.7" r="1.9"/><circle cx="104.69" cy="67.7" r="1.9"/><circle cx="95.31" cy="67.7" r="1.9"/><circle cx="85.92" cy="67.7" r="1.9"/><circle cx="76.53" cy="67.7" r="1.9"/><circle cx="67.15" cy="67.7" r="1.9"/><circle cx="142.24" cy="58.47" r="1.9"/><circle cx="132.85" cy="58.47" r="1.9"/><circle cx="123.47" cy="58.47" r="1.9"/><circle cx="114.08" cy="58.47" r="1.9"/><circle cx="104.69" cy="58.47" r="1.9"/><circle cx="95.31" cy="58.47" r="1.9"/><circle cx="85.92" cy="58.47" r="1.9"/><circle cx="76.53" cy="58.47" r="1.9"/><circle cx="67.15" cy="58.47" r="1.9"/><circle cx="57.76" cy="58.47" r="1.9"/></g></g></svg>